<svg width="188" height="56" viewBox="0 0 188 56" fill="none" xmlns="http://www.w3.org/2000/svg">
<rect x="0.5" y="0.5" width="187" height="55" rx="5.5" fill="#181A1B"/>
<rect x="0.5" y="0.5" width="187" height="55" rx="5.5" stroke="white"/>
<path d="M42.1606 26.8156C42.1203 22.3456 45.8386 20.1709 46.0086 20.0697C43.9028 17.0146 40.6389 16.5972 39.4918 16.564C36.7506 16.2766 34.0915 18.1962 32.6948 18.1962C31.2705 18.1962 29.1202 16.5913 26.8028 16.6388C23.8202 16.6846 21.0298 18.4031 19.4997 21.0711C16.3416 26.512 18.6971 34.5071 21.7225 38.9047C23.2362 41.06 25.0045 43.4634 27.3195 43.3789C29.5844 43.2873 30.4302 41.9435 33.1631 41.9435C35.871 41.9435 36.6656 43.3785 39.0262 43.3248C41.4569 43.2873 42.987 41.1612 44.4478 38.9879C46.1966 36.5206 46.8993 34.0884 46.9272 33.9633C46.8715 33.9438 42.208 32.1716 42.1606 26.8156ZM37.7009 13.6707C38.919 12.1549 39.7523 10.0925 39.5211 8C37.758 8.07764 35.5534 9.21317 34.2837 10.696C33.1603 12.0024 32.1571 14.1438 32.4162 16.1574C34.3966 16.3043 36.4299 15.1633 37.7009 13.6707Z" fill="white"/>
<path d="M74.5445 42.6035H71.3795L69.6457 37.1823H63.6196L61.9679 42.6035H58.8868L64.8586 24.1473H68.5463L74.5445 42.6035ZM69.1233 34.9081L67.5552 30.0887C67.3895 29.5965 67.0771 28.4367 66.6203 26.6118H66.5645C66.3803 27.3969 66.0864 28.5563 65.6835 30.0884L64.1423 34.9081H69.1233ZM89.8721 35.7858C89.8721 38.0492 89.2547 39.8381 88.0185 41.1515C86.9118 42.3206 85.5363 42.9047 83.8958 42.9047C82.1248 42.9047 80.8509 42.2763 80.0772 41.017V48H77.1061V33.6697C77.1061 32.2478 77.0685 30.7903 76.9961 29.2953H79.6092L79.7749 31.4048H79.8306C80.8217 29.8156 82.3253 29.0208 84.3437 29.0208C85.9211 29.0208 87.2381 29.6406 88.2915 30.8821C89.3439 32.1258 89.8721 33.7598 89.8721 35.7858ZM86.845 35.8939C86.845 34.5986 86.5525 33.5307 85.964 32.6891C85.3218 31.8139 84.4589 31.3754 83.3777 31.3754C82.6443 31.3754 81.9781 31.6198 81.3834 32.1009C80.7869 32.5861 80.3965 33.2204 80.214 34.0052C80.1324 34.2988 80.086 34.6009 80.0758 34.9054V37.1255C80.0758 38.0925 80.3742 38.9092 80.9707 39.5775C81.5672 40.243 82.342 40.5775 83.2951 40.5775C84.4143 40.5775 85.2856 40.1463 85.9086 39.2905C86.5326 38.4319 86.845 37.3002 86.845 35.8939ZM105.254 35.7858C105.254 38.0492 104.637 39.8381 103.4 41.1515C102.292 42.3206 100.918 42.9047 99.2764 42.9047C97.5053 42.9047 96.2315 42.2763 95.4577 41.017V48H92.4866V33.6697C92.4866 32.2478 92.449 30.7903 92.3766 29.2953H94.9897L95.1554 31.4048H95.2112C96.2005 29.8156 97.7045 29.0208 99.7238 29.0208C101.3 29.0208 102.617 29.6406 103.673 30.8821C104.724 32.1258 105.254 33.7598 105.254 35.7858ZM102.226 35.8939C102.226 34.5986 101.931 33.5307 101.343 32.6891C100.701 31.8139 99.8408 31.3754 98.7592 31.3754C98.0262 31.3754 97.3601 31.6198 96.7622 32.1009C96.1656 32.5861 95.7767 33.2204 95.5946 34.0052C95.504 34.3712 95.4553 34.6693 95.4553 34.9054V37.1255C95.4553 38.0925 95.7547 38.9092 96.3485 39.5775C96.945 40.2419 97.7198 40.5775 98.6757 40.5775C99.7963 40.5775 100.668 40.1463 101.289 39.2905C101.913 38.4319 102.226 37.3002 102.226 35.8939ZM122.452 37.4267C122.452 38.9979 121.9 40.2752 120.803 41.2613C119.596 42.3373 117.911 42.8766 115.751 42.8766C113.755 42.8766 112.155 42.4943 110.948 41.7272L111.635 39.2627C112.938 40.0312 114.37 40.4135 115.928 40.4135C117.049 40.4135 117.92 40.1615 118.541 39.6607C119.164 39.1587 119.479 38.4873 119.479 37.6499C119.479 36.8995 119.218 36.2714 118.707 35.7594C118.193 35.2492 117.342 34.7733 116.148 34.3366C112.901 33.1314 111.276 31.3688 111.276 29.0499C111.276 27.5352 111.85 26.2957 112.996 25.3262C114.142 24.3581 115.66 23.8738 117.55 23.8738C119.238 23.8738 120.644 24.1667 121.76 24.7508L121.015 27.1608C119.964 26.5951 118.778 26.3123 117.451 26.3123C116.403 26.3123 115.581 26.5688 114.993 27.079C114.498 27.5355 114.247 28.0915 114.247 28.7518C114.247 29.4797 114.533 30.0846 115.102 30.5588C115.595 30.9955 116.495 31.4714 117.797 31.9816C119.394 32.6225 120.567 33.3685 121.318 34.2256C122.076 35.0828 122.452 36.1522 122.452 37.4267ZM132.301 31.5144H129.025V37.9757C129.025 39.6191 129.602 40.4388 130.759 40.4388C131.29 40.4388 131.731 40.3944 132.079 40.3016L132.161 42.547C131.576 42.7646 130.805 42.8742 129.851 42.8742C128.677 42.8742 127.76 42.5178 127.098 41.8049C126.439 41.0919 126.107 39.8981 126.107 38.2173V31.5085H124.156V29.2898H126.107V26.853L129.025 25.9764V29.2901H132.301V31.5144ZM147.048 35.8402C147.048 37.8853 146.46 39.565 145.287 40.8783C144.059 42.2305 142.426 42.9047 140.39 42.9047C138.424 42.9047 136.862 42.2568 135.697 40.9629C134.532 39.6665 133.949 38.0326 133.949 36.0617C133.949 33.9993 134.551 32.3102 135.751 30.9969C136.954 29.6821 138.574 29.0246 140.61 29.0246C142.572 29.0246 144.148 29.6738 145.341 30.9691C146.481 32.2256 147.048 33.8489 147.048 35.8402ZM143.969 35.9078C143.969 34.6887 143.704 33.6433 143.173 32.7681C142.55 31.7113 141.658 31.183 140.502 31.183C139.312 31.183 138.399 31.7113 137.778 32.7681C137.245 33.6433 136.98 34.7068 136.98 35.9633C136.98 37.1837 137.245 38.2322 137.778 39.1047C138.42 40.1615 139.316 40.6898 140.477 40.6898C141.613 40.6898 142.504 40.1504 143.148 39.078C143.694 38.1823 143.969 37.13 143.969 35.9078ZM156.711 31.8957C156.402 31.8401 156.088 31.8128 155.774 31.8139C154.729 31.8139 153.921 32.2048 153.352 32.9927C152.859 33.686 152.61 34.5629 152.61 35.6208V42.6038H149.639V33.4863C149.642 32.0893 149.613 30.6924 149.553 29.2967H152.141L152.249 31.843H152.332C152.647 30.9678 153.14 30.262 153.818 29.7334C154.438 29.2718 155.191 29.0219 155.965 29.0208C156.24 29.0208 156.487 29.0402 156.708 29.0749L156.711 31.8957ZM169.999 35.3199C170.007 35.7694 169.97 36.2185 169.891 36.661H160.977C161.01 37.9757 161.442 38.9827 162.27 39.6759C163.021 40.2946 163.993 40.6052 165.185 40.6052C166.505 40.6052 167.709 40.3972 168.792 39.9771L169.258 42.0281C167.993 42.5775 166.498 42.8506 164.775 42.8506C162.701 42.8506 161.073 42.243 159.888 41.0308C158.706 39.8177 158.114 38.1865 158.114 36.1435C158.114 34.1383 158.665 32.4672 159.767 31.1345C160.921 29.7113 162.48 29 164.443 29C166.37 29 167.829 29.7113 168.82 31.1345C169.605 32.2617 169.999 33.66 169.999 35.3199ZM167.166 34.5529C167.187 33.6752 166.992 32.9192 166.589 32.2797C166.075 31.4561 165.283 31.0458 164.223 31.0458C163.251 31.0458 162.46 31.4464 161.857 32.2506C161.363 32.8901 161.069 33.6586 160.978 34.5501L167.166 34.5529ZM62.7626 17.6222C61.9359 17.6222 61.221 17.582 60.6259 17.514V8.59099C61.4582 8.46306 62.2993 8.40001 63.1415 8.40243C66.5492 8.40243 68.1183 10.0707 68.1183 12.7903C68.1183 15.9272 66.2647 17.6222 62.7626 17.6222ZM63.2612 9.54627C62.8016 9.54627 62.4098 9.574 62.0853 9.6409V16.4239C62.2608 16.4516 62.5979 16.4641 63.0718 16.4641C65.3047 16.4641 66.5757 15.199 66.5757 12.8305C66.5757 10.7182 65.4258 9.54627 63.2612 9.54627ZM73.0088 17.6901C71.0884 17.6901 69.8435 16.2631 69.8435 14.3255C69.8435 12.3064 71.1145 10.8666 73.1175 10.8666C75.0101 10.8666 76.2825 12.226 76.2825 14.2187C76.2825 16.2631 74.9711 17.6901 73.0088 17.6901ZM73.0646 11.9293C72.0094 11.9293 71.3335 12.9109 71.3335 14.2839C71.3335 15.6305 72.0234 16.6125 73.0503 16.6125C74.0772 16.6125 74.7674 15.5626 74.7674 14.2562C74.7674 12.9251 74.0918 11.9293 73.0646 11.9293ZM87.234 11.0014L85.178 17.5418H83.8387L82.9873 14.7016C82.7756 14.0068 82.5992 13.3018 82.459 12.5893H82.4312C82.3239 13.3019 82.1206 14.0163 81.9043 14.7016L80.9986 17.5418H79.6454L77.711 11.001H79.2118L79.956 14.1106C80.1318 14.8513 80.2795 15.5501 80.4021 16.2104H80.4299C80.5372 15.6596 80.7127 14.9719 80.9707 14.1244L81.9043 11.0028H83.0946L83.9881 14.0579C84.1953 14.7679 84.3714 15.4866 84.516 16.2118H84.555C84.6501 15.5393 84.7988 14.825 85.0011 14.0579L85.7996 11.0028L87.234 11.0014ZM94.8013 17.5418H93.3408V13.7861C93.3408 12.6295 92.8951 12.0496 92.0155 12.0496C91.1501 12.0496 90.555 12.7903 90.555 13.6516V17.5418H89.0942V12.8704C89.0942 12.2922 89.0803 11.6721 89.0399 10.9997H90.3248L90.3931 12.009H90.4338C90.8266 11.3102 91.6237 10.8662 92.5173 10.8662C93.8969 10.8662 94.8027 11.9165 94.8027 13.625L94.8013 17.5418ZM98.8292 17.5418H97.367V8H98.8292V17.5418ZM104.154 17.6901C102.235 17.6901 100.989 16.2631 100.989 14.3255C100.989 12.3064 102.26 10.8666 104.262 10.8666C106.156 10.8666 107.427 12.226 107.427 14.2187C107.428 16.2631 106.115 17.6901 104.154 17.6901ZM104.209 11.9293C103.154 11.9293 102.478 12.9109 102.478 14.2839C102.478 15.6305 103.169 16.6125 104.193 16.6125C105.222 16.6125 105.91 15.5626 105.91 14.2562C105.912 12.9251 105.237 11.9293 104.209 11.9293ZM113.185 17.5418L113.079 16.7886H113.04C112.594 17.3948 111.943 17.6898 111.118 17.6898C109.941 17.6898 109.104 16.869 109.104 15.765C109.104 14.1508 110.511 13.3158 112.945 13.3158V13.1951C112.945 12.3341 112.487 11.9026 111.581 11.9026C110.933 11.9026 110.364 12.0648 109.864 12.3879L109.567 11.4326C110.175 11.0555 110.933 10.8666 111.824 10.8666C113.54 10.8666 114.408 11.7681 114.408 13.5726V15.9816C114.408 16.6416 114.437 17.1532 114.502 17.5432L113.185 17.5418ZM112.984 14.2839C111.362 14.2839 110.548 14.6752 110.548 15.6028C110.548 16.2891 110.968 16.625 111.55 16.625C112.293 16.625 112.984 16.0607 112.984 15.2936V14.2839ZM121.5 17.5418L121.432 16.4915H121.391C120.972 17.2853 120.266 17.6901 119.281 17.6901C117.697 17.6901 116.523 16.3033 116.523 14.3522C116.523 12.3064 117.74 10.8652 119.401 10.8652C120.28 10.8652 120.903 11.1608 121.254 11.7542H121.284V8.00035H122.746V15.7785C122.746 16.4111 122.761 17.0031 122.8 17.5414L121.5 17.5418ZM121.284 13.6932C121.284 12.7778 120.675 11.9969 119.745 11.9969C118.662 11.9969 118.001 12.9525 118.001 14.2977C118.001 15.6166 118.687 16.5196 119.716 16.5196C120.634 16.5196 121.284 15.7248 121.284 14.783L121.284 13.6932ZM132.015 17.6898C130.096 17.6898 128.851 16.2631 128.851 14.3255C128.851 12.3064 130.122 10.8666 132.124 10.8666C134.018 10.8666 135.289 12.226 135.289 14.2187C135.29 16.2631 133.979 17.6898 132.015 17.6898ZM132.069 11.9289C131.016 11.9289 130.34 12.9109 130.34 14.2839C130.34 15.6305 131.03 16.6125 132.055 16.6125C133.084 16.6125 133.772 15.5626 133.772 14.2562C133.775 12.9251 133.099 11.9289 132.069 11.9289ZM143.143 17.5418H141.681V13.7861C141.681 12.6295 141.236 12.0496 140.356 12.0496C139.491 12.0496 138.897 12.7903 138.897 13.6516V17.5418H137.435V12.8704C137.435 12.2922 137.421 11.6721 137.38 10.9997H138.665L138.734 12.009H138.774C139.166 11.3102 139.964 10.8652 140.857 10.8652C142.236 10.8652 143.143 11.9147 143.143 13.6236V17.5418ZM152.97 12.0912H151.363V15.2672C151.363 16.0759 151.645 16.4794 152.213 16.4794C152.471 16.4794 152.687 16.4516 152.861 16.4114L152.902 17.5154C152.619 17.6236 152.24 17.6776 151.769 17.6776C150.618 17.6776 149.929 17.0451 149.929 15.3893V12.0912H148.97V11.0014H149.929V9.80277L151.363 9.37123V10.9997H152.97L152.97 12.0912ZM160.702 17.5418H159.243V13.8139C159.243 12.6433 158.798 12.051 157.918 12.051C157.161 12.051 156.456 12.5629 156.456 13.599V17.5418H154.997V8H156.456V11.9289H156.485C156.945 11.2163 157.611 10.8652 158.461 10.8652C159.852 10.8652 160.702 11.9414 160.702 13.6516V17.5418ZM168.624 14.6208H164.241C164.269 15.8593 165.092 16.5584 166.312 16.5584C166.96 16.5584 167.556 16.4503 168.083 16.2492L168.31 17.2589C167.688 17.5279 166.957 17.6624 166.105 17.6624C164.05 17.6624 162.833 16.3695 162.833 14.366C162.833 12.3605 164.079 10.8527 165.941 10.8527C167.62 10.8527 168.674 12.0912 168.674 13.9619C168.683 14.1827 168.667 14.4039 168.624 14.6208ZM167.285 13.5851C167.285 12.5754 166.773 11.8624 165.839 11.8624C165 11.8624 164.337 12.5893 164.242 13.5851H167.285Z" fill="white"/>
</svg>
