<svg width="188" height="56" viewBox="0 0 188 56" fill="none" xmlns="http://www.w3.org/2000/svg">
<rect x="0.5" y="0.5" width="187" height="55" rx="5.5" fill="#181A1B"/>
<rect x="0.5" y="0.5" width="187" height="55" rx="5.5" stroke="white"/>
<path d="M26.9443 27.1885L12.1392 43.0058V43.0198C12.2994 43.6189 12.5949 44.1727 13.0027 44.6379C13.4105 45.1031 13.9196 45.4672 14.4902 45.7016C15.0608 45.936 15.6775 46.0345 16.2921 45.9893C16.9067 45.9442 17.5026 45.7567 18.0334 45.4414L18.0751 45.4134L34.7292 35.741L26.9443 27.1885Z" fill="#EA4335"/>
<path d="M41.9162 24.5011L41.9023 24.4871L34.7152 20.2878L26.6106 27.5525L34.743 35.7411L41.9023 31.5839C42.5355 31.2387 43.0646 30.7279 43.4338 30.1054C43.8029 29.4829 43.9985 28.7717 44 28.0466C44.0014 27.3216 43.8086 26.6095 43.4419 25.9856C43.0751 25.3616 42.5481 24.8487 41.9162 24.5011Z" fill="#FBBC04"/>
<path d="M12.139 12.9951C12.0556 13.3311 12 13.667 12 14.0309V41.9842C12 42.3481 12.0417 42.684 12.139 43.02L27.4446 27.6086L12.139 12.9951Z" fill="#4285F4"/>
<path d="M27.0555 28.0002L34.7153 20.2875L18.0751 10.5731C17.5432 10.2529 16.9448 10.0609 16.3269 10.0123C15.709 9.96367 15.0883 10.0597 14.5134 10.2929C13.9386 10.5261 13.4251 10.89 13.0131 11.3563C12.6012 11.8226 12.3021 12.3786 12.1392 12.9807L27.0555 28.0002Z" fill="#34A853"/>
<path d="M64.7374 14.8517C64.7374 16.0574 64.3769 17.0191 63.656 17.7225C62.8486 18.5694 61.7961 19 60.484 19C59.2297 19 58.1627 18.5694 57.2976 17.7081C56.4325 16.8469 56 15.7703 56 14.5072C56 13.244 56.4325 12.1675 57.2976 11.3062C58.1627 10.445 59.2297 10 60.484 10C61.1184 10 61.724 10.1148 62.2863 10.3301C62.8486 10.5598 63.31 10.8756 63.6704 11.2775L62.8774 12.067C62.6179 11.7512 62.2719 11.4928 61.8393 11.3206C61.412 11.1355 60.9501 11.0425 60.484 11.0478C59.5469 11.0478 58.7394 11.378 58.0906 12.0239C57.4418 12.6842 57.1246 13.5024 57.1246 14.4928C57.1246 15.4833 57.4418 16.3014 58.0906 16.9617C58.7394 17.6077 59.5324 17.9378 60.484 17.9378C61.3491 17.9378 62.0556 17.6938 62.6323 17.2201C63.2091 16.7464 63.5407 16.0718 63.6272 15.2392H60.484V14.2057H64.6797C64.7085 14.4354 64.7374 14.6507 64.7374 14.8517ZM71.3841 10.201V11.2632H67.448V13.9904H70.9948V15.0239H67.448V17.7512H71.3841V18.8134H66.3378V10.201H71.3841ZM76.07 11.2632V18.8134H74.9598V11.2632H72.5376V10.201H78.4779V11.2632H76.07ZM83.8991 18.8134H82.7889V10.201H83.8991V18.8134ZM88.8301 11.2632V18.8134H87.7199V11.2632H85.2976V10.201H91.2379V11.2632H88.8301ZM103.767 14.5072C103.767 15.7847 103.335 16.8469 102.484 17.7081C101.619 18.5694 100.566 19 99.3121 19C98.0577 19 97.0051 18.5694 96.1401 17.7081C95.2894 16.8469 94.8568 15.7847 94.8568 14.5072C94.8568 13.2297 95.2894 12.1675 96.1401 11.3062C96.9907 10.445 98.0433 10 99.3121 10C100.566 10 101.619 10.4306 102.484 11.3062C103.349 12.1818 103.767 13.244 103.767 14.5072ZM96.0103 14.5072C96.0103 15.4976 96.3275 16.3301 96.9475 16.9761C97.5819 17.622 98.3749 17.9522 99.3121 17.9522C100.249 17.9522 101.042 17.622 101.662 16.9761C102.297 16.3301 102.614 15.512 102.614 14.5072C102.614 13.5024 102.297 12.6842 101.662 12.0383C101.028 11.3923 100.249 11.0622 99.3121 11.0622C98.3749 11.0622 97.5819 11.3923 96.9475 12.0383C96.3275 12.6842 96.0103 13.5167 96.0103 14.5072ZM106.435 18.8134H105.324V10.201H106.68L110.89 16.9043H110.933L110.89 15.2392V10.201H112V18.8134H110.847L106.449 11.7943H106.406L106.449 13.4593V18.8134H106.435Z" fill="white" stroke="white" stroke-width="0.287083" stroke-miterlimit="10"/>
<path d="M94.3581 28.6236C91.0318 28.6236 88.3142 31.1462 88.3142 34.613C88.3142 38.0658 91.0318 40.6025 94.3581 40.6025C97.6844 40.6025 100.402 38.0658 100.402 34.613C100.402 31.1462 97.6844 28.6236 94.3581 28.6236ZM94.3581 38.249C92.5322 38.249 90.9611 36.7551 90.9611 34.613C90.9611 32.4568 92.5322 30.9771 94.3581 30.9771C96.184 30.9771 97.7551 32.4568 97.7551 34.613C97.7551 36.7551 96.1698 38.249 94.3581 38.249ZM81.1663 28.6236C77.8401 28.6236 75.1224 31.1462 75.1224 34.613C75.1224 38.0658 77.8401 40.6025 81.1663 40.6025C84.4926 40.6025 87.2102 38.0658 87.2102 34.613C87.2102 31.1462 84.4926 28.6236 81.1663 28.6236ZM81.1663 38.249C79.3404 38.249 77.7693 36.7551 77.7693 34.613C77.7693 32.4568 79.3404 30.9771 81.1663 30.9771C82.9922 30.9771 84.5633 32.4568 84.5633 34.613C84.5633 36.7551 82.9922 38.249 81.1663 38.249ZM65.4834 30.4698V33.0065H71.598C71.414 34.4298 70.9328 35.4868 70.2109 36.2055C69.3192 37.0934 67.9321 38.0658 65.4975 38.0658C61.7325 38.0658 58.7884 35.0499 58.7884 31.3012C58.7884 27.5526 61.7325 24.5367 65.4975 24.5367C67.5216 24.5367 69.0078 25.3259 70.0977 26.3547L71.8953 24.5649C70.3666 23.1133 68.3425 22 65.4834 22C60.3312 22 56 26.1715 56 31.3153C56 36.4451 60.3312 40.6307 65.4834 40.6307C68.2718 40.6307 70.3666 39.7287 72.0085 38.0235C73.6928 36.3464 74.2166 33.9789 74.2166 32.0763C74.2166 31.4844 74.1741 30.9348 74.075 30.4839H65.4834V30.4698ZM129.616 32.4427C129.121 31.1039 127.592 28.6236 124.464 28.6236C121.364 28.6236 118.788 31.0476 118.788 34.613C118.788 37.9671 121.336 40.6025 124.761 40.6025C127.522 40.6025 129.121 38.9254 129.772 37.953L127.72 36.586C127.04 37.5866 126.106 38.249 124.761 38.249C123.417 38.249 122.454 37.643 121.846 36.431L129.899 33.1192L129.616 32.4427ZM121.407 34.4439C121.336 32.1327 123.205 30.9489 124.549 30.9489C125.597 30.9489 126.488 31.4703 126.786 32.2173L121.407 34.4439ZM114.868 40.2501H117.515V22.6342H114.868V40.2501ZM110.536 29.9624H110.437C109.843 29.2578 108.711 28.6236 107.267 28.6236C104.252 28.6236 101.492 31.259 101.492 34.6412C101.492 37.9953 104.252 40.6166 107.267 40.6166C108.696 40.6166 109.843 39.9824 110.437 39.2496H110.522V40.1092C110.522 42.4063 109.291 43.6324 107.309 43.6324C105.696 43.6324 104.691 42.4768 104.28 41.5044L101.973 42.4627C102.638 44.0552 104.393 46 107.309 46C110.409 46 113.028 44.182 113.028 39.7569V28.99H110.522V29.9624H110.536ZM107.493 38.249C105.667 38.249 104.139 36.727 104.139 34.6412C104.139 32.5273 105.667 30.9912 107.493 30.9912C109.291 30.9912 110.706 32.5414 110.706 34.6412C110.72 36.727 109.305 38.249 107.493 38.249ZM142.016 22.6342H135.689V40.2501H138.335V33.5702H142.03C144.96 33.5702 147.833 31.4563 147.833 28.1022C147.819 24.7481 144.931 22.6342 142.016 22.6342ZM142.072 31.118H138.321V25.0722H142.072C144.054 25.0722 145.172 26.707 145.172 28.0881C145.172 29.4692 144.054 31.118 142.072 31.118ZM158.406 28.5954C156.495 28.5954 154.514 29.441 153.693 31.2871L156.042 32.2595C156.538 31.2871 157.472 30.963 158.449 30.963C159.807 30.963 161.209 31.7804 161.223 33.2319V33.4152C160.742 33.1474 159.723 32.7387 158.463 32.7387C155.929 32.7387 153.367 34.1198 153.367 36.6988C153.367 39.0523 155.434 40.5743 157.755 40.5743C159.524 40.5743 160.515 39.7851 161.124 38.855H161.209V40.2079H163.757V33.4574C163.771 30.3429 161.421 28.5954 158.406 28.5954ZM158.081 38.249C157.217 38.249 156.014 37.8121 156.014 36.7551C156.014 35.4022 157.514 34.8808 158.817 34.8808C159.977 34.8808 160.529 35.1345 161.223 35.4727C161.125 36.2355 160.752 36.937 160.175 37.4474C159.597 37.9579 158.853 38.2426 158.081 38.249ZM173.056 28.9759L170.027 36.6142H169.942L166.8 28.9759H163.955L168.668 39.6583L165.979 45.5913H168.739L176 28.9759H173.056ZM149.277 40.2501H151.924V22.6342H149.277V40.2501Z" fill="white"/>
</svg>
