<svg width="88" height="32" viewBox="0 0 88 32" fill="none" xmlns="http://www.w3.org/2000/svg">
<path d="M16 31.5C13.8517 31.5 11.8395 31.0927 9.9581 30.2809C8.06703 29.4649 6.42704 28.3599 5.03355 26.9664C3.64007 25.573 2.53509 23.933 1.71908 22.0419C0.907261 20.1605 0.5 18.1483 0.5 16C0.5 13.8517 0.907261 11.8395 1.71908 9.9581C2.53509 8.06703 3.64007 6.42704 5.03355 5.03355C6.42704 3.64007 8.06703 2.53509 9.9581 1.71908C11.8395 0.907261 13.8517 0.5 16 0.5C18.1483 0.5 20.1605 0.907261 22.0419 1.71908C23.933 2.53509 25.573 3.64007 26.9664 5.03355C28.3599 6.42704 29.4649 8.06703 30.2809 9.9581C31.0927 11.8395 31.5 13.8517 31.5 16C31.5 18.1483 31.0927 20.1605 30.2809 22.0419C29.4649 23.933 28.3599 25.573 26.9664 26.9664C25.573 28.3599 23.933 29.4649 22.0419 30.2809C20.1605 31.0927 18.1483 31.5 16 31.5Z" fill="white" stroke="#54EA54"/>
<path d="M9.2294 20.017L9.22691 20.0069L9.21645 20.0075C8.66765 20.0429 8.12758 19.9633 7.59615 19.7687C7.06496 19.5741 6.58913 19.2645 6.16863 18.8398C5.39781 18.0612 5.0125 17.1178 5.0125 16.0088C5.0125 14.8998 5.39781 13.9563 6.16863 13.1778C6.93944 12.3992 7.8734 12.01 8.97125 12.01C10.0691 12.01 11.0031 12.3992 11.7739 13.1778C12.5447 13.9563 12.93 14.8998 12.93 16.0088C12.93 17.1178 12.5447 18.0612 11.7739 18.8398C11.6688 18.946 11.5578 19.0462 11.441 19.1406C11.3243 19.2349 11.2076 19.3174 11.091 19.3881L11.0831 19.3929L11.0853 19.4019L12.0166 23.0757C12.0166 23.0757 12.0166 23.0758 12.0166 23.0758C12.0992 23.4214 12.2678 23.6759 12.5229 23.8377C12.7769 23.9988 13.0461 24.0676 13.3301 24.0437C13.6141 24.0198 13.8713 23.9092 14.1016 23.7124C14.333 23.5146 14.4659 23.2303 14.5013 22.861L14.5013 22.8608L15.538 8.9991C15.538 8.99905 15.538 8.99901 15.538 8.99896C15.6198 8.09048 15.9496 7.38678 16.5266 6.88644C17.1046 6.38516 17.7553 6.09935 18.4789 6.02862C19.2023 5.9579 19.8997 6.11989 20.5711 6.51504C21.2412 6.90938 21.6876 7.55995 21.9096 8.46848L22.7706 12.0005L22.7731 12.0107L22.7836 12.01C23.3324 11.9746 23.8724 12.0542 24.4038 12.2489C24.935 12.4434 25.4109 12.753 25.8314 13.1778C26.6022 13.9563 26.9875 14.8998 26.9875 16.0088C26.9875 17.1178 26.6022 18.0612 25.8314 18.8398C25.0606 19.6184 24.1266 20.0075 23.0288 20.0075C21.9309 20.0075 20.9969 19.6184 20.2261 18.8398C19.4553 18.0612 19.07 17.1178 19.07 16.0088C19.07 14.8998 19.4553 13.9563 20.2261 13.1778C20.3312 13.0716 20.4392 12.9743 20.5501 12.8859C20.661 12.7975 20.7748 12.7179 20.8915 12.6472L20.8993 12.6424L20.8971 12.6335L19.9834 8.94183C19.9834 8.94181 19.9834 8.9418 19.9834 8.94178C19.9008 8.59612 19.7322 8.34164 19.4771 8.17985C19.2231 8.01874 18.9539 7.94993 18.6699 7.97384C18.3859 7.99774 18.1287 8.10833 17.8984 8.30515C17.667 8.50294 17.5341 8.78726 17.4987 9.15653L17.4987 9.15677L16.4444 23.0007C16.4444 23.0007 16.4444 23.0007 16.4444 23.0008C16.3626 23.9094 16.0386 24.6131 15.4733 25.1134C14.9071 25.6146 14.2623 25.9004 13.5387 25.9712C12.8152 26.0419 12.1149 25.8828 11.4375 25.4936C10.7616 25.1051 10.3124 24.4576 10.0904 23.5491L9.2294 20.017ZM24.4434 17.4375C24.8323 17.0446 25.0269 16.5681 25.0269 16.0088C25.0269 15.4494 24.8323 14.9729 24.4434 14.5801C24.0545 14.1872 23.5827 13.9907 23.0288 13.9907C22.4748 13.9907 22.0031 14.1872 21.6141 14.5801C21.2252 14.9729 21.0306 15.4494 21.0306 16.0088C21.0306 16.5681 21.2252 17.0446 21.6141 17.4375C22.0031 17.8303 22.4748 18.0269 23.0288 18.0269C23.5827 18.0269 24.0545 17.8303 24.4434 17.4375ZM10.3859 17.4375C10.7748 17.0446 10.9694 16.5681 10.9694 16.0088C10.9694 15.4494 10.7748 14.9729 10.3859 14.5801C9.99694 14.1872 9.52516 13.9907 8.97125 13.9907C8.41733 13.9907 7.94555 14.1872 7.55661 14.5801C7.16768 14.9729 6.97312 15.4494 6.97312 16.0088C6.97312 16.5681 7.16768 17.0446 7.55661 17.4375C7.94555 17.8303 8.41733 18.0269 8.97125 18.0269C9.52516 18.0269 9.99694 17.8303 10.3859 17.4375Z" fill="#54EA54" stroke="#54EA54" stroke-width="0.025"/>
<path d="M43.12 9.8H47.68L50.64 21H48.72L47.952 18.12H42.8L42.08 21H40.24L43.12 9.8ZM47.504 16.36L46.24 11.56H44.48L43.28 16.36H47.504ZM51.995 12.84H53.675V21H51.995V12.84ZM52.827 11.64C52.5497 11.64 52.315 11.544 52.123 11.352C51.931 11.16 51.835 10.9253 51.835 10.648C51.835 10.3707 51.931 10.136 52.123 9.944C52.315 9.74133 52.5497 9.64 52.827 9.64C53.1043 9.64 53.339 9.74133 53.531 9.944C53.7337 10.136 53.835 10.3707 53.835 10.648C53.835 10.9253 53.7337 11.16 53.531 11.352C53.339 11.544 53.1043 11.64 52.827 11.64ZM62.0687 9.8H66.6287L69.5887 21H67.6687L66.9007 18.12H61.7487L61.0287 21H59.1887L62.0687 9.8ZM66.4527 16.36L65.1887 11.56H63.4287L62.2287 16.36H66.4527ZM70.9437 9.8H72.6237V19.48H74.4637V21H70.9437V9.8ZM75.7444 9.8H77.4244V19.48H79.2644V21H75.7444V9.8ZM83.665 21H81.985L79.745 12.84H81.505L83.265 19.4H84.145L86.065 12.84H87.825L84.465 24.04H82.705L83.665 21Z" fill="#181A1B"/>
</svg>
