<svg width="132" height="48" viewBox="0 0 132 48" fill="none" xmlns="http://www.w3.org/2000/svg">
<path d="M24 47.25C20.7776 47.25 17.7592 46.6391 14.9371 45.4214C12.1005 44.1974 9.64056 42.5399 7.55033 40.4497C5.4601 38.3594 3.80264 35.8995 2.57862 33.0629C1.36089 30.2408 0.75 27.2224 0.75 24C0.75 20.7776 1.36089 17.7592 2.57862 14.9371C3.80264 12.1005 5.4601 9.64056 7.55033 7.55033C9.64056 5.4601 12.1005 3.80264 14.9371 2.57862C17.7592 1.36089 20.7776 0.75 24 0.75C27.2224 0.75 30.2408 1.36089 33.0629 2.57862C35.8995 3.80264 38.3594 5.4601 40.4497 7.55033C42.5399 9.64056 44.1974 12.1005 45.4214 14.9371C46.6391 17.7592 47.25 20.7776 47.25 24C47.25 27.2224 46.6391 30.2408 45.4214 33.0629C44.1974 35.8995 42.5399 38.3594 40.4497 40.4497C38.3594 42.5399 35.8995 44.1974 33.0629 45.4214C30.2408 46.6391 27.2224 47.25 24 47.25Z" fill="#181A1B" stroke="#54EA54" stroke-width="1.5"/>
<path d="M26.2481 13.7348L26.2481 13.7352L24.6666 34.501C24.544 35.864 24.058 36.9196 23.21 37.6702C22.3606 38.422 21.3934 38.8507 20.3081 38.9568C19.2228 39.0628 18.1724 38.8243 17.1563 38.2403C16.1425 37.6577 15.4685 36.6863 15.1356 35.3236L13.8441 30.0256L13.8404 30.0103L13.8247 30.0113C13.0015 30.0644 12.1914 29.945 11.3942 29.653C10.5974 29.3611 9.8837 28.8968 9.25294 28.2597C8.09672 27.0918 7.51875 25.6767 7.51875 24.0132C7.51875 22.3496 8.09672 20.9345 9.25294 19.7666C10.4092 18.5988 11.8101 18.0151 13.4569 18.0151C15.1036 18.0151 16.5046 18.5988 17.6608 19.7666C18.817 20.9345 19.395 22.3496 19.395 24.0132C19.395 25.6767 18.817 27.0918 17.6608 28.2597C17.5031 28.4189 17.3367 28.5693 17.1615 28.7109C16.9864 28.8524 16.8114 28.9761 16.6364 29.0822L16.6246 29.0894L16.628 29.1028L18.0249 34.6136C18.0249 34.6136 18.0249 34.6137 18.0249 34.6137C18.1488 35.1322 18.4017 35.5139 18.7843 35.7565C19.1653 35.9982 19.5691 36.1014 19.9952 36.0655C20.4211 36.0297 20.8069 35.8638 21.1524 35.5686C21.4995 35.2719 21.6988 34.8454 21.7519 34.2915L21.7519 34.2911L23.307 13.4987C23.4297 12.1358 23.9244 11.0802 24.7898 10.3297C25.6569 9.57774 26.6329 9.14902 27.7183 9.04293C28.8035 8.93685 29.8495 9.17984 30.8567 9.77256C31.8619 10.3641 32.5315 11.3399 32.8644 12.7027L34.1559 18.0007L34.1596 18.016L34.1753 18.015C34.9985 17.9619 35.8086 18.0813 36.6058 18.3733C37.4026 18.6652 38.1163 19.1295 38.7471 19.7666C39.9033 20.9345 40.4813 22.3496 40.4813 24.0132C40.4813 25.6767 39.9033 27.0918 38.7471 28.2597C37.5908 29.4275 36.1899 30.0113 34.5431 30.0113C32.8964 30.0113 31.4954 29.4275 30.3392 28.2597C29.183 27.0918 28.605 25.6767 28.605 24.0132C28.605 22.3496 29.183 20.9345 30.3392 19.7666C30.4969 19.6074 30.6589 19.4614 30.8252 19.3288C30.9915 19.1962 31.1622 19.0768 31.3372 18.9708L31.349 18.9636L31.3457 18.9502L29.9751 13.4127C29.8512 12.8942 29.5984 12.5125 29.2157 12.2698C28.8347 12.0281 28.4309 11.9249 28.0048 11.9608C27.5789 11.9966 27.1931 12.1625 26.8476 12.4577C26.5005 12.7544 26.3012 13.1809 26.2481 13.7348ZM36.6651 26.1562C37.2485 25.5669 37.5403 24.8522 37.5403 24.0132C37.5403 23.1741 37.2485 22.4594 36.6651 21.8701C36.0817 21.2808 35.374 20.986 34.5431 20.986C33.7123 20.986 33.0046 21.2808 32.4212 21.8701C31.8378 22.4594 31.5459 23.1741 31.5459 24.0132C31.5459 24.8522 31.8378 25.5669 32.4212 26.1562C33.0046 26.7455 33.7123 27.0403 34.5431 27.0403C35.374 27.0403 36.0817 26.7455 36.6651 26.1562ZM15.5788 26.1562C16.1622 25.5669 16.4541 24.8522 16.4541 24.0132C16.4541 23.1741 16.1622 22.4594 15.5788 21.8701C14.9954 21.2808 14.2877 20.986 13.4569 20.986C12.626 20.986 11.9183 21.2808 11.3349 21.8701C10.7515 22.4594 10.4597 23.1741 10.4597 24.0132C10.4597 24.8522 10.7515 25.5669 11.3349 26.1562C11.9183 26.7455 12.626 27.0403 13.4569 27.0403C14.2877 27.0403 14.9954 26.7455 15.5788 26.1562Z" fill="#54EA54" stroke="#54EA54" stroke-width="0.0375"/>
<path d="M64.68 14.2H71.52L75.96 31H73.08L71.928 26.68H64.2L63.12 31H60.36L64.68 14.2ZM71.256 24.04L69.36 16.84H66.72L64.92 24.04H71.256ZM77.9925 18.76H80.5125V31H77.9925V18.76ZM79.2405 16.96C78.8245 16.96 78.4725 16.816 78.1845 16.528C77.8965 16.24 77.7525 15.888 77.7525 15.472C77.7525 15.056 77.8965 14.704 78.1845 14.416C78.4725 14.112 78.8245 13.96 79.2405 13.96C79.6565 13.96 80.0085 14.112 80.2965 14.416C80.6005 14.704 80.7525 15.056 80.7525 15.472C80.7525 15.888 80.6005 16.24 80.2965 16.528C80.0085 16.816 79.6565 16.96 79.2405 16.96ZM93.1031 14.2H99.9431L104.383 31H101.503L100.351 26.68H92.6231L91.5431 31H88.7831L93.1031 14.2ZM99.6791 24.04L97.7831 16.84H95.1431L93.3431 24.04H99.6791ZM106.416 14.2H108.936V28.72H111.696V31H106.416V14.2ZM113.617 14.2H116.137V28.72H118.897V31H113.617V14.2ZM125.497 31H122.977L119.617 18.76H122.257L124.897 28.6H126.217L129.097 18.76H131.737L126.697 35.56H124.057L125.497 31Z" fill="#181A1B"/>
</svg>
