<svg width="24" height="24" viewBox="0 0 24 24" fill="none" xmlns="http://www.w3.org/2000/svg">
<mask id="mask0_9_506" style="mask-type:alpha" maskUnits="userSpaceOnUse" x="0" y="0" width="24" height="24">
<rect width="24" height="24" fill="#D9D9D9"/>
</mask>
<g mask="url(#mask0_9_506)">
<path d="M13.55 12.475L16.75 10.325C17.05 10.125 17.2 9.85 17.2 9.5C17.2 9.15 17.05 8.875 16.75 8.675L13.55 6.525C13.2167 6.29167 12.875 6.275 12.525 6.475C12.175 6.675 12 6.975 12 7.375V11.625C12 12.025 12.175 12.325 12.525 12.525C12.875 12.725 13.2167 12.7083 13.55 12.475ZM9.00001 17C8.45001 17 7.97918 16.8042 7.58751 16.4125C7.19584 16.0208 7.00001 15.55 7.00001 15V4C7.00001 3.45 7.19584 2.97917 7.58751 2.5875C7.97918 2.19583 8.45001 2 9.00001 2H20C20.55 2 21.0208 2.19583 21.4125 2.5875C21.8042 2.97917 22 3.45 22 4V15C22 15.55 21.8042 16.0208 21.4125 16.4125C21.0208 16.8042 20.55 17 20 17H9.00001ZM9.00001 15H20V4H9.00001V15ZM5.70001 21.875C5.15001 21.9417 4.65418 21.8083 4.21251 21.475C3.77084 21.1417 3.51668 20.7 3.45001 20.15L2.12501 9.225C2.05834 8.675 2.20001 8.18333 2.55001 7.75C2.90001 7.31667 3.35001 7.05833 3.90001 6.975H3.95001C4.23334 6.925 4.48751 7 4.71251 7.2C4.93751 7.4 5.05001 7.65 5.05001 7.95C5.05001 8.2 4.96251 8.41667 4.78751 8.6C4.61251 8.78333 4.40001 8.9 4.15001 8.95H4.12501L5.47501 19.9L17.325 18.45C17.6083 18.4167 17.8583 18.4833 18.075 18.65C18.2917 18.8167 18.4167 19.0417 18.45 19.325C18.4833 19.6083 18.4167 19.8542 18.25 20.0625C18.0833 20.2708 17.8583 20.3917 17.575 20.425L5.70001 21.875Z" fill="#181A1B"/>
</g>
</svg>
