<svg width="24" height="24" viewBox="0 0 24 24" fill="none" xmlns="http://www.w3.org/2000/svg">
<mask id="mask0_9_507" style="mask-type:alpha" maskUnits="userSpaceOnUse" x="0" y="0" width="24" height="24">
<rect width="24" height="24" fill="#D9D9D9"/>
</mask>
<g mask="url(#mask0_9_507)">
<path d="M5 4C4.71667 4 4.47917 3.90417 4.2875 3.7125C4.09583 3.52083 4 3.28333 4 3C4 2.71667 4.09583 2.47917 4.2875 2.2875C4.47917 2.09583 4.71667 2 5 2H20C20.55 2 21.0208 2.19583 21.4125 2.5875C21.8042 2.97917 22 3.45 22 4V6.025C22 6.35833 21.8958 6.60417 21.6875 6.7625C21.4792 6.92083 21.25 7 21 7C20.75 7 20.5208 6.92083 20.3125 6.7625C20.1042 6.60417 20 6.35833 20 6.025V4H5ZM3 18C2.71667 18 2.47917 17.9042 2.2875 17.7125C2.09583 17.5208 2 17.2833 2 17V8C2 7.71667 2.09583 7.47917 2.2875 7.2875C2.47917 7.09583 2.71667 7 3 7H8C8.28333 7 8.52083 7.09583 8.7125 7.2875C8.90417 7.47917 9 7.71667 9 8V17C9 17.2833 8.90417 17.5208 8.7125 17.7125C8.52083 17.9042 8.28333 18 8 18H3ZM16.25 19.25V15C16.1 14.8667 15.9792 14.7125 15.8875 14.5375C15.7958 14.3625 15.75 14.1833 15.75 14C15.75 13.65 15.875 13.3542 16.125 13.1125C16.375 12.8708 16.6667 12.75 17 12.75C17.35 12.75 17.6458 12.8708 17.8875 13.1125C18.1292 13.3542 18.25 13.65 18.25 14C18.25 14.1833 18.2125 14.3667 18.1375 14.55C18.0625 14.7333 17.9333 14.8833 17.75 15V19.25C17.75 19.4667 17.6792 19.6458 17.5375 19.7875C17.3958 19.9292 17.2167 20 17 20C16.7833 20 16.6042 19.9292 16.4625 19.7875C16.3208 19.6458 16.25 19.4667 16.25 19.25ZM17 11.5C16.3 11.5 15.7083 11.7417 15.225 12.225C14.7417 12.7083 14.5 13.3 14.5 14C14.5 14.2 14.5292 14.4 14.5875 14.6C14.6458 14.8 14.725 14.9917 14.825 15.175C14.925 15.3583 14.9708 15.5542 14.9625 15.7625C14.9542 15.9708 14.875 16.15 14.725 16.3C14.575 16.45 14.3958 16.5208 14.1875 16.5125C13.9792 16.5042 13.8167 16.4167 13.7 16.25C13.4667 15.9167 13.2917 15.5583 13.175 15.175C13.0583 14.7917 13 14.4 13 14C13 12.8833 13.3917 11.9375 14.175 11.1625C14.9583 10.3875 15.9 10 17 10C18.1167 10 19.0625 10.3875 19.8375 11.1625C20.6125 11.9375 21 12.8833 21 14C21 14.3833 20.9458 14.7667 20.8375 15.15C20.7292 15.5333 20.5583 15.8917 20.325 16.225C20.2083 16.3917 20.05 16.4792 19.85 16.4875C19.65 16.4958 19.475 16.425 19.325 16.275C19.175 16.1417 19.0917 15.9708 19.075 15.7625C19.0583 15.5542 19.1 15.3583 19.2 15.175C19.3 14.9917 19.375 14.8 19.425 14.6C19.475 14.4 19.5 14.2 19.5 14C19.5 13.3 19.2583 12.7083 18.775 12.225C18.2917 11.7417 17.7 11.5 17 11.5ZM17 9C15.6167 9 14.4375 9.48333 13.4625 10.45C12.4875 11.4167 12 12.6 12 14C12 14.5333 12.0875 15.05 12.2625 15.55C12.4375 16.05 12.6833 16.5167 13 16.95C13.1333 17.1333 13.1917 17.3292 13.175 17.5375C13.1583 17.7458 13.075 17.925 12.925 18.075C12.775 18.225 12.6 18.2917 12.4 18.275C12.2 18.2583 12.0333 18.1667 11.9 18C11.4667 17.4167 11.125 16.7875 10.875 16.1125C10.625 15.4375 10.5 14.7333 10.5 14C10.5 12.1833 11.1333 10.6458 12.4 9.3875C13.6667 8.12917 15.2 7.5 17 7.5C18.8167 7.5 20.3542 8.12917 21.6125 9.3875C22.8708 10.6458 23.5 12.1833 23.5 14C23.5 14.7333 23.3833 15.4375 23.15 16.1125C22.9167 16.7875 22.575 17.4167 22.125 18C21.9917 18.1667 21.8208 18.25 21.6125 18.25C21.4042 18.25 21.225 18.175 21.075 18.025C20.925 17.875 20.85 17.7 20.85 17.5C20.85 17.3 20.9167 17.1083 21.05 16.925C21.3667 16.4917 21.6042 16.0292 21.7625 15.5375C21.9208 15.0458 22 14.5333 22 14C22 12.6 21.5167 11.4167 20.55 10.45C19.5833 9.48333 18.4 9 17 9ZM4 16H7V9H4V16Z" fill="#181A1B"/>
</g>
</svg>
