<svg width="24" height="24" viewBox="0 0 24 24" fill="none" xmlns="http://www.w3.org/2000/svg">
<mask id="mask0_49_1576" style="mask-type:alpha" maskUnits="userSpaceOnUse" x="0" y="0" width="24" height="24">
<rect width="24" height="24" fill="#D9D9D9"/>
</mask>
<g mask="url(#mask0_49_1576)">
<path d="M15.075 20H16.475V17.925L19.025 17.325C19.375 17.2417 19.7375 17.1458 20.1125 17.0375C20.4875 16.9292 20.675 16.7583 20.675 16.525C20.675 16.3917 20.6083 16.2708 20.475 16.1625C20.3417 16.0542 20.1167 15.95 19.8 15.85C19.1667 15.6667 18.6833 15.3833 18.35 15C18.0167 14.6167 17.8667 14.2083 17.9 13.775C17.9333 13.425 18.0958 13.1125 18.3875 12.8375C18.6792 12.5625 19.0917 12.3333 19.625 12.15C20.0917 11.9833 20.4375 11.7958 20.6625 11.5875C20.8875 11.3792 21 11.1333 21 10.85C21 10.5167 20.8583 10.2625 20.575 10.0875C20.2917 9.9125 19.9833 9.88333 19.65 10C19.55 10.0333 19.4458 10.0583 19.3375 10.075C19.2292 10.0917 19.125 10.1 19.025 10.1C18.5917 10.1 18.2292 9.93333 17.9375 9.6C17.6458 9.26667 17.5 8.85833 17.5 8.375C17.5 7.94167 17.6125 7.54583 17.8375 7.1875C18.0625 6.82917 18.175 6.43333 18.175 6C18.175 5.71667 18.0542 5.47917 17.8125 5.2875C17.5708 5.09583 17.275 5 16.925 5C16.4417 5 16.1042 5.10417 15.9125 5.3125C15.7208 5.52083 15.625 5.91667 15.625 6.5C15.625 6.78333 15.6375 7.05833 15.6625 7.325C15.6875 7.59167 15.7 7.86667 15.7 8.15C15.7 8.9 15.5667 9.45 15.3 9.8C15.0333 10.15 14.6167 10.325 14.05 10.325C13.8667 10.325 13.675 10.3 13.475 10.25C13.275 10.2 13.0833 10.175 12.9 10.175C12.8 10.175 12.7208 10.1958 12.6625 10.2375C12.6042 10.2792 12.575 10.3417 12.575 10.425C12.575 10.5917 12.675 10.7583 12.875 10.925C13.075 11.0917 13.2667 11.25 13.45 11.4C13.8833 11.7833 14.2 12.15 14.4 12.5C14.6 12.85 14.7 13.2 14.7 13.55C14.7 14 14.5375 14.3833 14.2125 14.7C13.8875 15.0167 13.4917 15.175 13.025 15.175C12.8417 15.175 12.6667 15.1583 12.5 15.125C12.3333 15.0917 12.1583 15.0667 11.975 15.05C11.5083 15.0167 11.15 15.0583 10.9 15.175C10.65 15.2917 10.525 15.4667 10.525 15.7C10.525 15.9333 10.6333 16.125 10.85 16.275C11.0667 16.425 11.3833 16.5333 11.8 16.6L15.075 17.125V20ZM2.925 20.6C2.675 20.4833 2.5 20.2917 2.4 20.025C2.3 19.7583 2.30833 19.5 2.425 19.25L6.6 10.075C6.71667 9.825 6.9 9.65 7.15 9.55C7.4 9.45 7.65 9.45833 7.9 9.575C8.15 9.69167 8.325 9.88333 8.425 10.15C8.525 10.4167 8.51667 10.675 8.4 10.925L4.225 20.1C4.10833 20.35 3.925 20.525 3.675 20.625C3.425 20.725 3.175 20.7167 2.925 20.6ZM14.075 22C13.7917 22 13.5542 21.9042 13.3625 21.7125C13.1708 21.5208 13.075 21.2833 13.075 21V18.8L11.65 18.6C10.7333 18.4667 9.9875 18.1375 9.4125 17.6125C8.8375 17.0875 8.55 16.475 8.55 15.775C8.55 14.975 8.87917 14.3042 9.5375 13.7625C10.1958 13.2208 10.9833 12.975 11.9 13.025C11.9833 13.025 12.0542 13.0292 12.1125 13.0375C12.1708 13.0458 12.2333 13.0583 12.3 13.075C12.1667 12.9417 12.0417 12.8208 11.925 12.7125C11.8083 12.6042 11.7 12.4917 11.6 12.375C11.2667 12.0083 11.025 11.6708 10.875 11.3625C10.725 11.0542 10.65 10.7417 10.65 10.425C10.65 9.79167 10.8292 9.27083 11.1875 8.8625C11.5458 8.45417 12.0167 8.25 12.6 8.25C12.7167 8.25 12.875 8.25417 13.075 8.2625C13.275 8.27083 13.4917 8.29167 13.725 8.325C13.7583 7.99167 13.7583 7.65 13.725 7.3C13.6917 6.95 13.675 6.60833 13.675 6.275C13.675 5.225 13.9583 4.41667 14.525 3.85C15.0917 3.28333 15.9 3 16.95 3C17.8833 3 18.6625 3.26667 19.2875 3.8C19.9125 4.33333 20.2167 4.98333 20.2 5.75C20.2 6.13333 20.1333 6.50833 20 6.875C19.8667 7.24167 19.7167 7.6 19.55 7.95C19.6333 7.93333 19.7208 7.92083 19.8125 7.9125C19.9042 7.90417 19.9917 7.9 20.075 7.9C20.875 7.9 21.5625 8.1875 22.1375 8.7625C22.7125 9.3375 23 10.0417 23 10.875C23 11.5917 22.7458 12.2375 22.2375 12.8125C21.7292 13.3875 21.1333 13.7667 20.45 13.95C20.5667 13.9833 20.675 14.0167 20.775 14.05C20.875 14.0833 20.975 14.125 21.075 14.175C21.5583 14.4083 21.95 14.7375 22.25 15.1625C22.55 15.5875 22.7 16.05 22.7 16.55C22.7 17.1833 22.4208 17.7375 21.8625 18.2125C21.3042 18.6875 20.5083 19.05 19.475 19.3L18.475 19.55V21C18.475 21.2833 18.3792 21.5208 18.1875 21.7125C17.9958 21.9042 17.7583 22 17.475 22H14.075ZM4.175 9.85C3.975 10.05 3.72917 10.1417 3.4375 10.125C3.14583 10.1083 2.925 9.98333 2.775 9.75C2.50833 9.35 2.3125 8.91667 2.1875 8.45C2.0625 7.98333 2 7.50833 2 7.025C2 5.625 2.48333 4.4375 3.45 3.4625C4.41667 2.4875 5.6 2 7 2C7.48333 2 7.95833 2.07083 8.425 2.2125C8.89167 2.35417 9.33333 2.55833 9.75 2.825C9.98333 2.975 10.1083 3.1875 10.125 3.4625C10.1417 3.7375 10.05 3.975 9.85 4.175C9.65 4.375 9.40833 4.47917 9.125 4.4875C8.84167 4.49583 8.56667 4.43333 8.3 4.3C8.1 4.2 7.89167 4.125 7.675 4.075C7.45833 4.025 7.23333 4 7 4C6.16667 4 5.45833 4.29167 4.875 4.875C4.29167 5.45833 4 6.16667 4 7C4 7.23333 4.025 7.45833 4.075 7.675C4.125 7.89167 4.19167 8.1 4.275 8.3C4.40833 8.56667 4.475 8.84167 4.475 9.125C4.475 9.40833 4.375 9.65 4.175 9.85Z" fill="white"/>
</g>
</svg>
