<svg width="24" height="24" viewBox="0 0 24 24" fill="none" xmlns="http://www.w3.org/2000/svg">
<mask id="mask0_49_1583" style="mask-type:alpha" maskUnits="userSpaceOnUse" x="0" y="0" width="24" height="24">
<rect width="24" height="24" fill="#D9D9D9"/>
</mask>
<g mask="url(#mask0_49_1583)">
<path d="M6 10H12V5H6V10ZM6 19H12V12H6V19ZM13 21H5C4.71667 21 4.47917 20.9042 4.2875 20.7125C4.09583 20.5208 4 20.2833 4 20V5C4 4.45 4.19583 3.97917 4.5875 3.5875C4.97917 3.19583 5.45 3 6 3H12C12.55 3 13.0208 3.19583 13.4125 3.5875C13.8042 3.97917 14 4.45 14 5V12H15.25C15.7333 12 16.1458 12.1708 16.4875 12.5125C16.8292 12.8542 17 13.2667 17 13.75V18.375C17 18.6583 17.1167 18.9167 17.35 19.15C17.5833 19.3833 17.8417 19.5 18.125 19.5C18.425 19.5 18.6875 19.3833 18.9125 19.15C19.1375 18.9167 19.25 18.6583 19.25 18.375V9H19C18.7167 9 18.4792 8.90417 18.2875 8.7125C18.0958 8.52083 18 8.28333 18 8V6.5C18 6.36667 18.05 6.25 18.15 6.15C18.25 6.05 18.3667 6 18.5 6V5C18.5 4.86667 18.55 4.75 18.65 4.65C18.75 4.55 18.8667 4.5 19 4.5C19.1333 4.5 19.25 4.55 19.35 4.65C19.45 4.75 19.5 4.86667 19.5 5V6H20.5V5C20.5 4.86667 20.55 4.75 20.65 4.65C20.75 4.55 20.8667 4.5 21 4.5C21.1333 4.5 21.25 4.55 21.35 4.65C21.45 4.75 21.5 4.86667 21.5 5V6C21.6333 6 21.75 6.05 21.85 6.15C21.95 6.25 22 6.36667 22 6.5V8C22 8.28333 21.9042 8.52083 21.7125 8.7125C21.5208 8.90417 21.2833 9 21 9H20.75V18.375C20.75 19.075 20.4958 19.6875 19.9875 20.2125C19.4792 20.7375 18.8583 21 18.125 21C17.4083 21 16.7917 20.7375 16.275 20.2125C15.7583 19.6875 15.5 19.075 15.5 18.375V13.75C15.5 13.6667 15.4792 13.6042 15.4375 13.5625C15.3958 13.5208 15.3333 13.5 15.25 13.5H14V20C14 20.2833 13.9042 20.5208 13.7125 20.7125C13.5208 20.9042 13.2833 21 13 21ZM8.5 19L11 15H9.5V12L7 16H8.5V19Z" fill="white"/>
</g>
</svg>
