<svg width="24" height="24" viewBox="0 0 24 24" fill="none" xmlns="http://www.w3.org/2000/svg">
<mask id="mask0_9_508" style="mask-type:alpha" maskUnits="userSpaceOnUse" x="0" y="0" width="24" height="24">
<rect width="24" height="24" fill="#D9D9D9"/>
</mask>
<g mask="url(#mask0_9_508)">
<path d="M12 17.65C12.1334 17.65 12.2542 17.6292 12.3625 17.5875C12.4709 17.5458 12.575 17.4833 12.675 17.4C13.2084 16.9167 13.7167 16.4417 14.2 15.975C14.6834 15.5083 15.1042 15.05 15.4625 14.6C15.8209 14.15 16.1084 13.7125 16.325 13.2875C16.5417 12.8625 16.65 12.45 16.65 12.05C16.65 11.3167 16.4 10.7083 15.9 10.225C15.4 9.74166 14.8 9.49999 14.1 9.49999C13.6667 9.49999 13.2709 9.58749 12.9125 9.76249C12.5542 9.93749 12.25 10.1667 12 10.45C11.75 10.1667 11.4375 9.93749 11.0625 9.76249C10.6875 9.58749 10.3 9.49999 9.90003 9.49999C9.20003 9.49999 8.60003 9.74166 8.10003 10.225C7.60003 10.7083 7.35003 11.3167 7.35003 12.05C7.35003 12.45 7.45836 12.8625 7.67502 13.2875C7.89169 13.7125 8.17919 14.15 8.53753 14.6C8.89586 15.05 9.31669 15.5083 9.80002 15.975C10.2834 16.4417 10.7917 16.9167 11.325 17.4C11.425 17.4833 11.5292 17.5458 11.6375 17.5875C11.7459 17.6292 11.8667 17.65 12 17.65ZM6.00002 21C5.45002 21 4.97919 20.8042 4.58752 20.4125C4.19586 20.0208 4.00002 19.55 4.00002 19V11.625L3.00002 12.4C2.76669 12.5667 2.51669 12.6333 2.25002 12.6C1.98336 12.5667 1.76669 12.4333 1.60002 12.2C1.43336 11.9667 1.37086 11.7167 1.41252 11.45C1.45419 11.1833 1.58336 10.9667 1.80002 10.8L10.775 3.92499C10.9584 3.79166 11.1542 3.69166 11.3625 3.62499C11.5709 3.55833 11.7834 3.52499 12 3.52499C12.2167 3.52499 12.4292 3.55833 12.6375 3.62499C12.8459 3.69166 13.0417 3.79166 13.225 3.92499L22.225 10.8C22.4417 10.9667 22.5667 11.1833 22.6 11.45C22.6334 11.7167 22.5667 11.9667 22.4 12.2C22.2334 12.4167 22.0167 12.5417 21.75 12.575C21.4834 12.6083 21.2417 12.5417 21.025 12.375L20 11.625V19C20 19.55 19.8042 20.0208 19.4125 20.4125C19.0209 20.8042 18.55 21 18 21H6.00002ZM6.00002 19H18V10.1L12 5.52499L6.00002 10.1V19Z" fill="#181A1B"/>
</g>
</svg>
