<svg width="24" height="24" viewBox="0 0 24 24" fill="none" xmlns="http://www.w3.org/2000/svg">
<mask id="mask0_49_1582" style="mask-type:alpha" maskUnits="userSpaceOnUse" x="0" y="0" width="24" height="24">
<rect width="24" height="24" fill="#D9D9D9"/>
</mask>
<g mask="url(#mask0_49_1582)">
<path d="M8.55 20H15.45L16.45 16H7.55L8.55 20ZM8.55 22C8.08333 22 7.675 21.8583 7.325 21.575C6.975 21.2917 6.74167 20.925 6.625 20.475L5.5 16H18.5L17.375 20.475C17.2583 20.925 17.025 21.2917 16.675 21.575C16.325 21.8583 15.9167 22 15.45 22H8.55ZM5 14H19V12H5V14ZM12 7.99999C12 6.49999 12.5083 5.19999 13.525 4.09999C14.5417 2.99999 15.8083 2.33333 17.325 2.09999C17.4083 2.08333 17.4833 2.09166 17.55 2.12499C17.6167 2.15833 17.6833 2.19999 17.75 2.24999C17.8167 2.29999 17.8625 2.36249 17.8875 2.43749C17.9125 2.51249 17.9167 2.59166 17.9 2.67499C17.7167 3.99166 17.1792 5.13749 16.2875 6.11249C15.3958 7.08749 14.3 7.68333 13 7.89999V9.99999H20C20.2833 9.99999 20.5208 10.0958 20.7125 10.2875C20.9042 10.4792 21 10.7167 21 11V14C21 14.55 20.8042 15.0208 20.4125 15.4125C20.0208 15.8042 19.55 16 19 16H5C4.45 16 3.97917 15.8042 3.5875 15.4125C3.19583 15.0208 3 14.55 3 14V11C3 10.7167 3.09583 10.4792 3.2875 10.2875C3.47917 10.0958 3.71667 9.99999 4 9.99999H11V7.89999C9.7 7.68333 8.60417 7.08749 7.7125 6.11249C6.82083 5.13749 6.28333 3.99166 6.1 2.67499C6.08333 2.59166 6.0875 2.51249 6.1125 2.43749C6.1375 2.36249 6.18333 2.29999 6.25 2.24999C6.31667 2.19999 6.38333 2.15833 6.45 2.12499C6.51667 2.09166 6.59167 2.08333 6.675 2.09999C8.19167 2.33333 9.45833 2.99999 10.475 4.09999C11.4917 5.19999 12 6.49999 12 7.99999Z" fill="white"/>
</g>
</svg>
